# xmcd
#
# Track frame offsets:
#	157
#	11967
#	32862
#	52342
#	63822
#	77037
#	95660
#	117327
#	132795
#	146172
#	168617
#	179427
#	193125
#	207527
#	221875
#
# Disc length: 3178 seconds
#
# Revision: 1
# Processed by: cddbd v1.4b41PL2 Copyright (c) Steve Scherf et al.
# Submitted via: audiograbber 1.80
#
DISCID=f20c680f
DTITLE=Bob Margolin - Chicago Blues
DYEAR=1900
DGENRE=
TTITLE0=She's So Pretty
TTITLE1=She And The Devil
TTITLE2=Steady Rollin' Man
TTITLE3=Sugar Sweet
TTITLE4=Something Inside Of Me
TTITLE5=Dust My Broom
TTITLE6=Wee Wee Baby
TTITLE7=Rollin' And Tumblin
TTITLE8=Mean Disposition
TTITLE9=Tribute To Howlin' WOlf
TTITLE10=Not What You Said Last NIght
TTITLE11=Welcome Home
TTITLE12=Telephone Answering Machine Blues
TTITLE13=Born In The Wrong Time
TTITLE14=She And The Devil
EXTD=
EXTT0=
EXTT1=
EXTT2=
EXTT3=
EXTT4=
EXTT5=
EXTT6=
EXTT7=
EXTT8=
EXTT9=
EXTT10=
EXTT11=
EXTT12=
EXTT13=
EXTT14=
PLAYORDER=
